<svg width="21" height="21" viewBox="0 0 21 21" fill="none" xmlns="http://www.w3.org/2000/svg">
<path d="M8.00033 4.21639C8.75993 3.97477 9.59235 3.83337 10.5003 3.83337C13.9852 3.83337 16.357 5.91634 17.7712 7.75365C18.4795 8.67381 18.8337 9.13389 18.8337 10.5C18.8337 11.8662 18.4795 12.3263 17.7712 13.2464C16.357 15.0837 13.9852 17.1667 10.5003 17.1667C7.01542 17.1667 4.64363 15.0837 3.2294 13.2464C2.52113 12.3263 2.16699 11.8662 2.16699 10.5C2.16699 9.13389 2.52113 8.67381 3.2294 7.75365C3.63042 7.23266 4.10844 6.69192 4.66699 6.18452" stroke="#73C3F3" stroke-linecap="round"/>
<path d="M13 10.5C13 11.8807 11.8807 13 10.5 13C9.11929 13 8 11.8807 8 10.5C8 9.11929 9.11929 8 10.5 8C11.8807 8 13 9.11929 13 10.5Z" stroke="#F37D73"/>
</svg>
