<svg width="45" height="45" viewBox="0 0 45 45" fill="none" xmlns="http://www.w3.org/2000/svg">
<g clip-path="url(#clip0_1_219)">
<path d="M25.7903 0.780805C21.4659 0.218194 17.0681 0.905933 13.1372 2.75952C9.20629 4.61319 5.91274 7.55203 3.66336 11.2149C1.41304 14.8778 0.303104 19.1052 0.470783 23.3777C0.638462 27.6501 2.07612 31.7815 4.60655 35.2642C7.13697 38.7467 10.6506 41.429 14.7159 42.9811C18.7802 44.5334 23.2189 44.8879 27.4861 44.0013C31.7534 43.1147 35.6643 41.0255 38.7368 37.9904C41.8093 34.9553 43.9101 31.1066 44.7809 26.9172L38.2004 25.6023C37.5897 28.5349 36.1197 31.229 33.9684 33.3535C31.8181 35.4781 29.081 36.9405 26.0933 37.5612C23.1065 38.1818 19.9987 37.9336 17.1539 36.847C14.3091 35.7606 11.8491 33.883 10.078 31.4451C8.30597 29.0073 7.2999 26.1153 7.18271 23.1246C7.06553 20.1339 7.842 17.1748 9.41684 14.6107C10.9926 12.0467 13.2973 9.98951 16.0487 8.69191C18.8002 7.3944 21.8794 6.91294 24.9062 7.30682L25.7903 0.780805Z" fill="#F37D73"/>
<path d="M44.858 20.2983C44.4712 16.4345 43.046 12.7403 40.727 9.59283C38.4081 6.44529 35.2784 3.9572 31.6571 2.38245L28.9333 8.39982C31.4675 9.50216 33.6579 11.2438 35.2813 13.4471C36.9047 15.6503 37.9032 18.2362 38.1737 20.941L44.858 20.2983Z" fill="#F37D73"/>
<path d="M28.0058 21.7361C27.3188 19.247 24.703 17.7751 22.1635 18.4485C19.6239 19.122 18.1222 21.6857 18.8093 24.1748C19.4964 26.6639 22.1121 28.1358 24.6516 27.4624C27.1912 26.789 28.6929 24.2252 28.0058 21.7361Z" fill="#F37D73"/>
</g>
<defs>
<clipPath id="clip0_1_219">
<rect width="45" height="45" fill="white"/>
</clipPath>
</defs>
</svg>
