<svg width="21" height="21" viewBox="0 0 21 21" fill="none" xmlns="http://www.w3.org/2000/svg">
<circle cx="10.5" cy="10.5" r="2.5" stroke="#F37D73"/>
<path d="M3.55142 9.36593C3.94521 9.61335 4.19859 10.0348 4.19859 10.4999C4.19858 10.965 3.94521 11.3865 3.55142 11.6339C3.28346 11.8022 3.11081 11.9368 2.98797 12.0969C2.71888 12.4476 2.60012 12.8908 2.65782 13.329C2.70109 13.6577 2.89523 13.994 3.28352 14.6665C3.6718 15.3391 3.86595 15.6753 4.12896 15.8771C4.47964 16.1462 4.92286 16.265 5.36111 16.2073C5.56114 16.181 5.76397 16.0987 6.04371 15.9509C6.45494 15.7336 6.94673 15.7249 7.34954 15.9575C7.7523 16.19 7.99063 16.6202 8.00801 17.085C8.01984 17.4012 8.05006 17.618 8.12727 17.8044C8.29643 18.2128 8.62089 18.5373 9.02927 18.7064C9.33555 18.8333 9.72384 18.8333 10.5004 18.8333C11.277 18.8333 11.6653 18.8333 11.9715 18.7064C12.3799 18.5373 12.7044 18.2128 12.8735 17.8044C12.9508 17.618 12.981 17.4012 12.9928 17.085C13.0102 16.6202 13.2485 16.19 13.6513 15.9575C14.0541 15.7249 14.5458 15.7336 14.957 15.951C15.2368 16.0988 15.4397 16.1811 15.6397 16.2074C16.0779 16.2651 16.5212 16.1463 16.8718 15.8772C17.1349 15.6754 17.329 15.3392 17.7173 14.6666C17.8902 14.3672 18.0245 14.1344 18.1243 13.9393M17.4494 11.634C17.0556 11.3866 16.8022 10.9651 16.8022 10.5C16.8021 10.0349 17.0555 9.61338 17.4494 9.36594C17.7173 9.19759 17.8899 9.06303 18.0127 8.90296C18.2818 8.55227 18.4006 8.10906 18.3429 7.67081C18.2996 7.34213 18.1055 7.00586 17.7172 6.33333C17.3289 5.6608 17.1348 5.32454 16.8718 5.12272C16.5211 4.85363 16.0779 4.73488 15.6396 4.79257C15.4396 4.81891 15.2367 4.90113 14.957 5.04899C14.5458 5.26632 14.054 5.275 13.6512 5.04242C13.2485 4.80988 13.0102 4.37971 12.9928 3.91498C12.981 3.59872 12.9508 3.38192 12.8735 3.19549C12.7044 2.78711 12.3799 2.46265 11.9715 2.29349C11.6653 2.16663 11.277 2.16663 10.5004 2.16663C9.72384 2.16663 9.33555 2.16663 9.02927 2.29349C8.62089 2.46265 8.29643 2.78711 8.12727 3.19549C8.05006 3.3819 8.01984 3.59869 8.00801 3.91491C7.99063 4.37968 7.75228 4.80988 7.3495 5.04243C6.94672 5.27497 6.45497 5.26629 6.04378 5.04896C5.76402 4.90109 5.56116 4.81887 5.36111 4.79253C4.92287 4.73483 4.47965 4.85359 4.12897 5.12268C3.86595 5.3245 3.67181 5.66076 3.28353 6.33329C3.11067 6.6327 2.97628 6.86545 2.87656 7.06057" stroke="#73C3F3" stroke-linecap="round"/>
</svg>
